
<svg fill="none" height="26" width="99" xmlns="http://www.w3.org/2000/svg"><g clip-rule="evenodd" fill-rule="evenodd"><path d="m54.28 5.723.525 6.342h-.705l-.062-.205c-.402-1.353-.936-2.172-1.964-3.018-1.265-1.008-3.109-1.692-4.696-1.692-1.777 0-3.335.654-4.508 1.833-1.473 1.479-2.189 3.781-2.189 6.48 0 2.506.739 4.723 2.253 6.246 1.292 1.297 2.976 2.032 4.867 2.032 1.22 0 2.2-.32 3.499-1.153l.188-.123v-4.532c0-1.682-.338-2.045-2.103-2.13l-.406-.016v-.727h8.245v.727l-.274.01c-1.611.066-1.916.364-1.94 2.204l-.002.274v4.89l-.441.241c-2.52 1.359-4.162 1.773-7.03 1.773-3.443 0-5.813-.775-7.927-2.593-2.1-1.817-3.125-3.974-3.138-6.595-.014-2.737.994-5.269 2.837-7.13 2.006-2.024 4.814-3.138 7.91-3.138 1.592 0 3.482.39 4.94 1.026.336.154.634.21.754.21.394 0 .546-.548.603-.92l.043-.316h.72zm-19.738.356v.733c-2.826-.011-2.578 1.505-2.573 4.551v13.398l-.93-.01-14.11-14.837.075.393c.045.251.095.572.108.8v9.167l-.007.34c-.042 3.031.414 3.406 2.482 3.368v.765h-6.81v-.765l.314-.002c1.84-.032 2.24-.455 2.251-3.794v-8.998l-.017-1.435c.08-1.855-.602-2.932-2.684-2.914v-.735h6.27l11.719 12.377-.062-.312a8.169 8.169 0 0 1 -.125-.882v-5.597l-.002-.493c.003-2.935.262-4.395-2.431-4.384v-.733h6.533zm-25.159.003v.763h-.56c-.762 0-1.291.16-1.617.49-.34.34-.503.889-.52 1.768l-.002.169v12.257c0 1.636.332 2.392 2.275 2.45l.425.006v.748h-9.384v-.752h.286c1.991 0 2.405-.688 2.44-2.222l.002-.23v-12.257c0-.98-.162-1.58-.523-1.944-.3-.3-.77-.46-1.432-.48l-.156-.003h-.617v-.763z" fill="#000e64"/><g fill="#ff6200"><path d="m90.537 20.33a.969.969 0 0 1 -.125.332l-.417-.567c.127-.184.15-.433.308-.594.103-.047.18.057.22.121.037.186.054.394.032.59l-.018.117zm-.642 1.717c-.035-.37-.36-.627-.555-.936l-.06-.103.237-.486c.203.128.383.33.46.543l-.035.13-.024.094a.378.378 0 0 0 -.003.233c.05.087.168.095.187.192a2.09 2.09 0 0 1 -.147.254zm-.905-3.097-.013-.002c-.165-.012-.143-.238-.278-.326a1.14 1.14 0 0 0 -.935-.475c-.244.024-.39.271-.616.335-.001-.011.002-.02.004-.03.02-.056.061-.1.086-.154l.004-.03.006-.01c.019-.115.011-.256.03-.381.021-.138.075-.256.236-.295l.43-.03c.227.475.831.163 1.074.566.011.29-.082.55-.028.832zm-.279 1.189-.035.142-.047.201-.488-.404c.006-.098.053-.254-.046-.33-.29-.288-.767-.097-1.138-.109-.095-.024-.112-.08-.102-.143.008-.056.038-.116.055-.163.07-.086.117-.185.197-.265.18 0 .337-.158.517-.119.344-.045.529.327.849.327.162.12.255.299.296.484-.002.1-.017.195-.037.287l-.02.091zm-.659 1.117-.097.098a3.547 3.547 0 0 0 -.999-.427c-.017-.086.029-.174-.017-.265-.111-.075-.232-.157-.378-.122l-.116.067c-.121.067-.257.126-.374.095-.013-.004-.026-.006-.039-.012.279-.138.296-.428.586-.623.081-.11.17-.029.268 0 .156.091.278.15.47.15a.779.779 0 0 1 -.019.259.307.307 0 0 1 -.033.076l.008.005c.088.1.262.065.38.133.187.139.384.318.36.566zm-1.842-9.406c.009-.042.02-.084.031-.127l.01-.042.006-.041c.001-.01.003-.021.003-.032.094-.168.226-.312.39-.427.168-.012.423-.11.586.028.046.393.453.208.72.278.134.173.216.386.337.577l-.511-.128c-.32-.075-.645-.133-.98-.103-.187.07-.419.064-.56.22a.214.214 0 0 1 -.038-.16zm.19 1.306a.773.773 0 0 1 .08-.273c.303-.19.57-.577.965-.346.186 0 .337.075.5.138.11.133.233.289.32.445l-.038-.002c-.446-.006-.989-.22-1.368.123-.122.104-.273.144-.418.186a.438.438 0 0 1 -.045-.199l.003-.072zm2.252.755c.133-.104.279-.202.466-.138.33.167.656.509.696.883l-.018-.01c-.553-.303-1.179-.43-1.812-.544-.382 0-.615.375-1.004.375-.14.098-.279.202-.43.277-.087-.022-.029-.133-.082-.179-.017.005-.017.023-.017.04a.922.922 0 0 1 -.043-.365l.014-.23c.261.024.424-.19.656-.277.395.036.761-.086 1.117-.195.257.01.09.542.398.396l.06-.033zm.378 1.952c-.118-.059-.225-.146-.212-.278.004-.014.006-.027.013-.04.011-.015.012-.032.011-.05.014-.028.002-.062.009-.089-.244-.178-.495.064-.738.099-.175.063-.365-.047-.505.109a.083.083 0 0 0 -.004.037l-.005.004c-.03.088.081.119.11.184l-.49.192c-.175-.024-.378 0-.5-.129a2.199 2.199 0 0 1 -.073-.393l-.016-.173c.221-.086.512-.028.674-.225.453-.283.988-.006 1.435.098.122.012.251-.057.35-.15.22.082.388.278.627.318.058.227.121.444.15.681l-.014.004c-.254.093-.494-.106-.746-.18l-.076-.02zm-.446 1.097c-.383-.163-.884-.07-1.226.079-.145-.017-.233-.27-.308-.427l-.023-.075a.088.088 0 0 1 0-.04c.162-.034.354-.018.488-.139a2.304 2.304 0 0 1 1.237.07c.03.37.505.403.517.778l.058.347-.016-.01c-.206-.12-.436-.212-.628-.324.025-.083.028-.206-.061-.248zm-3.846-1.692-.007-.008c-.464-.419-.804-.851-1.205-1.285l-.24-.252c.436-.087.65.466 1.063.505l.159.142a.944.944 0 0 1 .202.245l.023.324c.007.108.011.216.005.33zm-.418 3.157c-.163.014-.14-.185-.181-.289-.11-.392-.18-.748-.267-1.146-.238-.572-.563-1.102-.766-1.691-.102-.201-.292-.37-.485-.504l-.155-.103c.286.007.623.07.85.261.017.16.058.335.226.404.481.093.464.61.766.91a.08.08 0 0 1 .009.083c-.027.055-.113.095-.149.136-.12-.019-.202.098-.226.195v.041l.234.14c.102.064.2.137.283.246-.006.456-.094.878-.14 1.317zm-.508.644c0 .015-.006.026-.008.04-.023.045-.06.081-.081.122l-.014.043c-.004.007-.004.015-.006.023-.121.258-.3.465-.456.701l.037-.165c.055-.26.098-.559-.05-.776-.08-.107-.323-.006-.324-.163l.033-.36c.022-.263.015-.518-.196-.712a.378.378 0 0 1 -.018-.18c.045-.276.459-.351.615-.566.112.208.013.526.082.763l.071.303c.04.175.065.355.015.522a.581.581 0 0 1 -.038.098v.015l-.011.026c-.022.092.053.138.123.155.074.017.243-.044.235.071zm-1.098-2.542c-.003.016-.004.031-.01.048l-.13.126a.357.357 0 0 1 -.194.11l-.302-.582.082-.792c.086-.024.172.052.248.099.1.12.047.304.1.443.052.163.206.3.211.479l-.005.07zm-.497 1.798-.007.038c-.051.349-.177.673-.26 1.012 0-.377-.128-.699-.35-.981l.002-.008c.019-.053.061-.101.082-.152l.012-.05a.12.12 0 0 0 -.026-.125c-.127-.15-.429-.185-.388-.456a.426.426 0 0 1 .006-.09c.033-.236.25-.392.343-.602.046-.024.099.057.121.096l.085.27c.046.152.078.31.042.47a.623.623 0 0 1 -.028.093v.02c-.039.258.343.217.366.465zm-.94-3.614c.015-.082.037-.162.057-.244.227.168.366.394.418.642a.453.453 0 0 1 -.022.106c-.036.112-.108.211-.157.321-.174-.122-.337-.323-.308-.566a.881.881 0 0 1 .001-.176zm-.368-1.36c-.302.084-.684.07-.967-.084l-.11-.07.486-.276c.181.161.425.295.645.416zm-.43 8.088c-.01.05-.02.102-.033.153h-.029c-.11-.162-.163-.363-.337-.485l.004-.02c.017-.063.033-.126.04-.187.083-.57-.227-1.07-.306-1.606l-.087-.185c.273.237.739.502.686.958l.047.341c.038.286.065.575.037.86l-.023.17zm-.73.32-.01.027c-.09.224-.133.468-.229.695-.168-.347-.284-.889-.766-.97-.063-.213-.14-.445-.348-.572l-.616-.08-.024.028.01.018-.018.023c.07.183.362.31.342.526a.288.288 0 0 1 -.032.08l.005.007-.013.034c.129.18.382.218.513.398l.044.075c.138.186.031.441.055.66l-.435.269c-.018-.427.103-1.01-.378-1.258-.375.113-.43-.337-.67-.535l-.05-.036c-.116-.064-.128-.295-.296-.208-.303.202-.75.057-1.057.247h-.07c.076-.213.098-.542.401-.566.204-.184.488-.103.756-.167l.488-.15c.587 0 1.057.294 1.59.428.262.179.396.455.43.75.128.086.384.086.378.277zm-2.317.928-.013-.016-.029.029.017.012-.209.185c-.196-.249-.046-.722-.405-.89-.2.025-.354-.094-.491-.22l-.178-.166.18-.071c.105.006.227-.087.32-.017l.096.084c.09.083.158.17.171.308.129.087.285-.01.418.08.1.204.18.51.123.682zm-2.092-2.521h-.041l.129-.357a3.69 3.69 0 0 1 .15-.354c.24-.075.478-.196.727-.208.175-.081.384-.12.57-.12l.017.08h.247c.705.005 1.43.1 1.913.664l.041.404-.013-.007c-.256-.165-.617-.142-.812-.397-.25-.133-.5-.139-.808-.15-.255.087-.557.065-.807.168-.099-.046-.029-.168-.14-.209l-.274.076c-.318.09-.628.194-.899.41zm-.053-4.683c.338-.04.674-.081.988-.184h.128l.278.403c.244.138.5.255.738.405a.065.065 0 0 1 -.019.035c-.033.038-.104.043-.15.074-.614.136-1.09-.112-1.537-.424zm-.366-1.224a1.096 1.096 0 0 1 -.167-.815c.042-.274.154-.542.256-.788.128.362.21.75.25 1.149.07.223.463.345.585.553l-.031.01c-.242.072-.63.143-.846-.058l-.047-.05zm.156 2.303-.033.015c-.233.109-.53.24-.79.124-.42-.208-.466-.755-.919-.917a.474.474 0 0 1 -.079-.187l-.018-.114 1.044.249c-.007.15.117.225.238.277.175.213.378.351.557.553zm-2.02-5.125c-.067-.003-.077.023-.075.058-.021.026 0 .076 0 .121l-.006.013-.009.038-.012.061-.048.208c-.022.095-.038.19-.037.294-.195.092-.425.16-.678.148l-.04-.289c-.099-.166-.087-.38-.127-.571l-.041-.04a.232.232 0 0 0 -.093.15l-.03.156a.342.342 0 0 1 -.028.08c-.076.15-.21.272-.227.445-.221-.013-.429-.064-.597-.22l.028-.64c-.017-.023-.04-.028-.069-.028l-.349.334c-.219-.273-.308-.637-.284-.985l.016-.152c.953-.49 2.218-.427 3.205-.11.117.087.268.087.366.22-.01.064-.024.129-.038.193-.085.391-.23.76-.518 1.053-.062-.139-.159-.274-.238-.406l-.071-.13zm-.364 2.732a1.24 1.24 0 0 1 -.432.732l-.168-.762c.28-.127.414-.288.646-.554.004.151-.002.3-.022.443l-.024.14zm-.165 4.543-.018.008a.893.893 0 0 1 -.708.072l-.436-.566c.332.053.698.086 1.007-.028zm-1.49-1.275-.24.079c.098-.156.313-.29.36-.484.29-.196.383-.503.534-.774.25-.122.481-.035.75-.11a.729.729 0 0 1 -.031.134c-.097.295-.368.54-.555.807a5.142 5.142 0 0 1 -.818.348zm-.43-3.99c.18.114.423.103.597.219.035.293.157.629.121.917l-.006-.005c-.308-.261-.621-.596-.694-.986l-.019-.145zm-.2 3.059a2.207 2.207 0 0 1 -.757.102l-.167-.015.244-.192c.124-.095.252-.184.384-.253l.557-.542h.517l-.016.04c-.13.318-.331.7-.673.832zm-.706 3.143v.123c-.163-.367-.422-.857-.887-.925-.23-.145-.4-.386-.556-.6-.198-.099-.448-.092-.64-.208-.284-.005-.545.121-.835.14l-.07-.111.47-.584c.47.123 1.062 0 1.37.444.221.151.488.256.668.446l-.012.036a.304.304 0 0 0 -.014.06.188.188 0 0 0 0 .122c.123.104.29.18.407.296.081.196.15.442.119.666zm-.299 1.207-.418.553c-.16-.228-.062-.562-.31-.754.04-.07.103-.13.132-.201l.013-.055a.173.173 0 0 0 -.004-.126c-.07-.117-.186-.122-.29-.156l-.168.028c-.471-.184-.877-.542-1.267-.883-.301-.11-.552.07-.814.14a.35.35 0 0 1 -.092-.124l-.03-.073c.257-.18.292-.642.682-.582.209.045.406.096.587.195.26.058.381.306.586.467.25.232.558.33.807.555a.362.362 0 0 0 .21.334c.382.024.279.439.376.682zm-.987.969-.238.745-.477-1.207a1.997 1.997 0 0 0 -.186-.178l-.03-.025c-.373-.306-.832-.476-1.277-.64-.133-.056-.255.053-.388.013a.72.72 0 0 1 .02-.142.856.856 0 0 1 .288-.453l.128-.029c-.012.029.011.04.022.058.047-.04.134-.04.169.012l.058.07c.168.022.47-.063.459.184.197.162.676.146.594.52l-.008.034c-.022.07-.074.148-.083.226a.161.161 0 0 0 .042.132l.188.007c.219.01.459.048.562.27zm-1.957 1.031c-.225.367-.433.713-.738 1.034h-.041c-.013-.19.013-.362.05-.533l.067-.298c.02-.087.036-.176.048-.268.015-.04.068-.075.057-.111.014-.023.02-.045-.012-.069-.221-.017-.384-.178-.61-.178-.168.109-.164.312-.267.455-.216.428-.61.742-.697 1.227-.059-.012-.03-.105-.059-.156.014-.476.041-.932.14-1.361.063-.278.155-.546.294-.8.285-.318.65-.486 1.057-.526l.35.12-.25.32.015.009-.024.03.18.109c.251.16.518.385.476.7zm.019-15.783c.002-.074.012-.144.025-.213a2.26 2.26 0 0 1 .241-.636l.529-.162-.249.37v.026l-.01.015a2.2 2.2 0 0 1 -.036.61l-.092.434a4.507 4.507 0 0 0 -.04.22 2.49 2.49 0 0 0 -.038.356zm.226-1.802.011-.474c.151-.154.255-.351.448-.467v.676zm.888 8.372c-.277.275-.582.44-.738.785a6.614 6.614 0 0 0 -.146-.581c.058-.159.238-.28.359-.4v.01c.138.027.289.065.425.13zm1.492 1.726c.098-.036.203.01.308.017l-.325 1.039c-.226.156-.482.165-.752.149l-.364-.027c.451-.22.852-.635 1.08-1.07zm-.547-.815a.95.95 0 0 1 -.025.135c-.073.286-.265.547-.492.778l-.26.266c.002-.196.027-.383.058-.567l.11-.582c.16-.056.37-.122.545-.06zm-.569-2.295.001-.198c.175.086.378.196.547.358l.011.139c.216.414.634.749.686 1.234l-.018-.006c-.44-.128-.869-.547-1.126-.923l-.061-.299a2.24 2.24 0 0 1 -.04-.305zm2.064.466-.07.86-.004-.008a3.475 3.475 0 0 1 -.484-1.027l-.052-.212zm4.181 1.928-.028-.016c-.246-.14-.739-.246-.77-.575v-.069l.003-.033c.163-.213.344-.346.517-.554.048.415.115.872.279 1.247zm2.5-1.137-.046.005c-.365.05-.684-.167-.901-.45-.164-.253-.185-.56-.24-.855l-.039-.185c.279.265.848.307.79.82.01.272.239.473.435.665zm-8.71-11.322c.115-.07.255-.086.377-.139l.182-.122c.227-.15.472-.287.763-.155.244.053.466.168.716.208 0 .128.028.271.162.318.378.063.425.514.646.761.15.117.388.041.597.081.285.081.58.116.825.295.46-.323 1.08-.388 1.656-.307.057-.236.157-.466.238-.68.145.005.064-.168.197-.19l.272-.18c.233-.15.49-.27.797-.168.326.15.756.116.995.417l-.018.01c.3.27.365.66.572.984-.017.05-.03.102-.04.155-.036.167-.042.346-.066.517l-.025.126a.675.675 0 0 1 -.276.412l-.32.277.012.013c-.122.069-.261.092-.389.138l.01.034-.019.006c.117.306.119.656.047.983-.046.194-.118.38-.207.541l.014-.003-.022.045.124-.03a.525.525 0 0 0 .294-.178c.021.058.019.12.007.183l-.021.075-.034.105v.013l-.009.028a.593.593 0 0 1 -.004.25c-.076.262-.31.476-.488.678-.11.417-.441.895-.906.97l.002.039c.002.046.011.1.04.14.957.01 1.834.293 2.635.721l.012.415-.009-.005a5.738 5.738 0 0 0 -2.552-.775l-.005.043h-.005a1.6 1.6 0 0 1 -.013.157l-.024.147-.032.169.272.12-.264-.162c.779.33 1.528.75 2.201 1.345l-.21-.129c.068.056.136.112.203.171l-.027.438-.33-.276c-.609-.505-1.25-1-1.977-1.244a3.388 3.388 0 0 1 -.406.514c-.482-.305-.97-.588-1.522-.722-.238.053-.25-.195-.29-.346l-.04-.334c.32-.093.476-.41.569-.693l.092.04c.096.04.201.07.297.018a.238.238 0 0 0 .1-.145c.017-.06.02-.127.028-.19-.122-.416-.634-.398-.988-.445-.476-.034-.964-.023-1.341.209a.178.178 0 0 0 -.07.132c-.009.08.014.172.017.242.04.093.129.116.22.139a.77.77 0 0 0 .309-.08c-.024.317.156.588.429.744.03-.006.041.018.058.03l-.1.527c-.14.25-.481.137-.695.263a3.93 3.93 0 0 0 -1.145.497c-.21-.115-.372-.312-.53-.497-.586.214-1.12.542-1.63.93l-.53.427c-.05-.142-.023-.334-.028-.504.591-.583 1.342-.79 2.03-1.147l-.002-.035.009-.005-.029-.498c-.25-.069-.546-.004-.807.012a4.49 4.49 0 0 0 -1.673.693c.01-.104-.012-.232.003-.34a.208.208 0 0 1 .111-.145 4.577 4.577 0 0 1 2.44-.606.156.156 0 0 0 .007-.04h.001a.268.268 0 0 0 -.03-.209c-.063-.114-.027-.294-.179-.346-.41-.403-.667-.872-.757-1.405.044.021.099.014.151.014l.02-.016.01-.006-.008-.03.005-.006.01-.006a3.4 3.4 0 0 1 -.062-1.574 2.91 2.91 0 0 1 .054-.214l-.002-.001.01-.04c-.354-.15-.773-.445-.906-.82-.149-.245-.273-.5-.317-.788.107-.277.251-.539.41-.794l.12-.19zm9.168 4.215c.127.278.371.544.314.881l-.004.016a.604.604 0 0 1 -.029.125l-.043.225-.477.15zm.476 5.79.58.486v.04h-.007c-.341-.008-.709.094-.972-.132l-.077-.076a1.93 1.93 0 0 1 .394-.284l.082-.033zm.491-3.084.02-.172c.1.138.14.312.297.415.208-.121.244.226.348.347.058.15.15.288.18.456l-.018.003c-.388.103-.607-.284-.83-.529.005-.159-.009-.346.003-.52zm1.304 2.708c-.013.009-.024.012-.036.018-.123.052-.219-.055-.345-.063l-.065.005c-.193.017-.425.034-.583-.069-.078-.1-.107-.239-.178-.354l-.019-.033c.24-.052.483-.207.71-.03.16.14.27.324.42.455l.096.072zm-2.495 2.892-.096-.132c.208-.18.517-.173.79-.226.11.104.127.248.209.365.208.241.435.473.685.675l-.047.006a1.38 1.38 0 0 1 -.778-.087c-.253-.187-.56-.358-.763-.601zm1.251 3.453c.424.052.576.503.698.831l-.027-.006c-.241-.061-.547-.054-.683-.299l-.097-.079c-.067-.051-.141-.088-.222-.031-.326.277-.628-.161-1.016-.052-.25.093-.488.22-.727.33l-.11-.053c.04-.253.256-.433.429-.622.49.218.78-.677 1.227-.186.13.079.282.09.424.13zm1.94-3.861a.06.06 0 0 1 -.02.035c-.034.032-.104.035-.148.057-.535.08-1.044-.15-1.445-.387-.02-.037-.066-.078-.088-.127a.119.119 0 0 1 -.012-.04c.244.023.494-.346.686-.052.304.06.609.32.902.462zm-15.988 8.182a.966.966 0 0 1 -.185.398c-.109-.264-.301-.536-.586-.623a1.297 1.297 0 0 0 -.22.562c-.062.326-.03.68-.011 1.021-.137.139-.295.235-.448.337-.2-.523-.162-1.11-.038-1.654.045-.196.1-.387.16-.566.1-.289.297-.536.477-.79l.696-.07a.386.386 0 0 0 -.069.048c-.098.082-.135.197-.159.317l-.039.218c.14.105.43.046.419.3.031.136.037.272.02.404zm-1.729.444a2.838 2.838 0 0 0 -.464-.207.643.643 0 0 0 -.102.282c-.053.296.066.63.012.95l-.026.253c-.166-.013-.334-.178-.426-.322l-.031-.506a7.232 7.232 0 0 1 -.01-.505l.013-.29.639-.712c.366.231.465.677.395 1.057zm29.495-17.157-.033-.036c-.151-.177-.338-.342-.582-.38l-.13-.14c-.156-.166-.327-.325-.538-.371a.413.413 0 0 0 -.07-.014c.243-.109.517-.133.796-.15l.145.181c.14.184.262.374.314.604zm-2.018-1.413-.028.002c-.233.011-.472.144-.671.015a.602.602 0 0 0 -.43.07.996.996 0 0 1 -.35-.096l-.127-.06c.32-.087.581-.319.907-.387.254.12.505.248.726.456zm9.101 11.84-.002-.125-.013-.391-.008-.138-.029-.38-.017-.16-.043-.356a12.482 12.482 0 0 0 -.557-2.352 11.42 11.42 0 0 0 -.407-1.021c-.786-1.613-1.842-3.348-3.443-4.425l-.203-.131a7.31 7.31 0 0 1 -2.4-2.483l-.162-.152c-.215-.207-.434-.423-.7-.506l-.103-.023.031.051-.04-.01c.101.165.21.328.244.52l-.008.01c-.397.011-.712-.193-.987-.446l.28-.253-.025-.009.035-.031c-.116-.058-.25-.082-.378-.11-1.173-.132-2.137.404-3.177.664l-.017.058.002.001-.01.039c.638.282.772.982 1.143 1.455.092-.11.25-.03.378-.04.185.01.36.144.54.097 0-.013-.003-.025-.004-.038l.012-.002c.005-.143-.064-.256-.1-.38.107-.04.232 0 .348.005.326.19.842-.019 1.064.377a5.692 5.692 0 0 0 -.863.139l-.21.05a.247.247 0 0 0 .01.036l-.019.004c.021.13.139.235.155.36a3.672 3.672 0 0 0 -.965-.245l-.017.052.003.003-.013.038c.436.508 1.035.81 1.645.987.877.202 1.65-.213 2.497-.069 2.08.947 3.857 3.113 4.63 5.168.038.1.075.2.109.3.536 1.557.712 3.41.386 5.113l-.05.246a8.07 8.07 0 0 1 -.206.743c-.345.815-.725 1.583-1.334 2.246-.23.28-.485.532-.762.745-.872.675-1.947.972-3.055.669-.06-.04-.175-.054-.188-.138a.114.114 0 0 1 .002-.037l.041-.185.066-.308a12.38 12.38 0 0 0 .229-2.667l-.015-.373c-.06-1.433-.348-2.722-.878-3.96-.339-.711-.743-1.487-1.251-2.183-.607-.83-1.36-1.548-2.327-1.906-.593-.156-1.326-.184-1.772.307-.21.181-.337.405-.389.653l-.02.134a1.315 1.315 0 0 0 -.008.28 3.655 3.655 0 0 1 -1.663.532c-.15.013-.303.066-.458.066a2.49 2.49 0 0 1 -.432-.018c-.738-.09-1.481-.483-2.047-.936-.011-.298-.03-.582-.04-.899-.317-.163-.576-.47-.612-.832l.016-.016c.187.057.349.15.518.247l-.01-.049.018.01c-.076-.451-.162-.896-.389-1.288-.21-.087-.42-.156-.616-.26a.973.973 0 0 1 -.392-.612c.206.173.54.117.692.317l-.02-.067.028.027c-.272-.802-.278-1.72-.726-2.454-.227-.543-.82-.79-1.226-1.19-.157-.19-.22-.455-.505-.485-.213-.052-.246-.275-.281-.44.137.023.254.112.37.134l-.017-.047.027.007-.214-.57c-.275-.716-.611-1.425-1.331-1.871l-.157.097c-.344.052-.71.074-1.055.086.16-.198.412-.295.617-.392l-.033-.021.041-.02c-.256-.19-.466-.236-.786-.288-.186.186-.521.277-.76.329l-.028-.023-.006-.16a.64.64 0 0 1 .01-.122c.028-.092.095-.166.248-.191-.018-.009-.038-.015-.058-.022l.031-.01.035-.008c-.302-.145-.802-.087-1.11 0-.078.201-.284.384-.315.61a.423.423 0 0 0 -.01.088c-.176.185-.303.428-.488.56 0-.074.004-.146.013-.218l.015-.107c.058-.306.172-.593.23-.863h-.002l.01-.041c-.26.097-.526.235-.782.357a10.708 10.708 0 0 0 -1.287-.652c-.041-.017-.129-.035-.111.04-.009.008-.014.02-.009.042.363.26.245.737.27 1.116l-.228-.187c-.116-.295-.452-.508-.509-.832-.395.075-.648.18-1.014.335l-.051.03c.02 0 .04.003.059.005l-.016.007-.05.028c.254 0 .472.186.608.386-.396.012-.753-.14-1.147-.179l-.048-.048a.117.117 0 0 0 -.092-.033c-.203.076-.377.22-.557.359-.36.352-.726.74-.935 1.191l-.064.154.009.001-.017.04.156.02c.08.01.157.025.217.062-.204.135-.388.34-.591.46l-.008.04c-.073.291-.065.621-.081.94-.167.25-.39.473-.498.752a8.37 8.37 0 0 0 -.226.916l-.041.24-.052.352-.027.238-.031.34-.014.22-.017.362v.061c-.011.344-.015.691-.001 1.042-.116.105-.262.175-.369.259v.035l-.008.006.012 1.177h.028c.052-.247.35-.385.53-.553h.058c-.028.253-.06.507-.067.766l-.332.272a.458.458 0 0 0 -.156.278c-.07.268.089.592.067.873l.031.137c.017.061.04.114.08.128.04-.145.167-.248.25-.376.142-.034.268-.146.4-.165a6.077 6.077 0 0 1 -.278.804 1.062 1.062 0 0 0 -.177.144.484.484 0 0 0 -.102.157l-.015.059.002.009-.012.031c.262 1.363.67 2.71 1.138 3.993-.266.454-.436.975-.644 1.458l-.108.238a3.632 3.632 0 0 0 -.105.237c-.266.671-.348 1.42-.68 2.067a2.311 2.311 0 0 0 -.429-.226c-.629-.207-1.354-.075-1.812.404-.408-.076-.826-.006-1.146.207a1.522 1.522 0 0 0 -.507.62 1.26 1.26 0 0 0 -.076.269 1.282 1.282 0 0 0 -.023.286c-.255.18-.394.452-.479.725l-.004.032a1.86 1.86 0 0 0 -.027.438c.027.468.219.923.489 1.283h10.264a3.313 3.313 0 0 1 -.396-.64c-.22-.33-.069-.797-.092-1.179.21-.42.421-.841.66-1.251.049-.083.097-.164.147-.244l.47-.179c.25 0 .46-.179.698-.116.32.319.32-.317.628-.346.72-.093 1.434-.023 1.84.583 0 .08.13.08.1.156-.093.028-.18-.03-.279-.03-.441-.109-.959-.387-1.394-.138-.017.103-.04.209-.06.313a3 3 0 0 0 -.051.321c.284.081.523.284.737.503.145-.283.453-.41.726-.503l.182.034c.183.03.368.062.516.174.366.336.186.907.151 1.334.33.184.697.29 1.033.467-.157.14-.365.197-.556.267l-.558-.11c-.064-.046-.175-.046-.198-.127-.186.196-.412.456-.528.71h7.957a4.145 4.145 0 0 0 -.372-.64c-.163-.347-.098-.821-.116-1.19l.744-1.127c.406-.005.866-.156 1.306-.08a.455.455 0 0 0 .064-.034c.184-.126.24-.419.512-.382.487-.132.86.088 1.226.307a.57.57 0 0 1 -.038.075c-.153.244-.44-.028-.649.045-.087.092.041.202.058.306.076.103-.076.092-.127.11a.4.4 0 0 1 -.35-.11c-.022-.03-.005-.063-.05-.069-.106.172-.257.329-.297.525l.142.129c.073.065.145.134.194.21l.041.078c.133.19-.105.334-.15.502-.018.034-.072.034-.088 0-.123-.07-.227-.243-.36-.198-.117.515.04 1.029-.03 1.542.182.041.381.013.576.004l.161-.004.1-1.085c.103-.704.523-1.293 1.016-1.831.534-.362.877.354 1.271.601.065.012.042.081.07.121-.006.116-.127.162-.209.197-.244.086-.424-.18-.575-.335-.145.156-.21.363-.377.485l.057.017c.193.19.378.393.42.647-.024.23-.14.455-.35.572a5.742 5.742 0 0 1 -.388-.833c.006.013-.006.018-.017.03-.32.086-.406.444-.46.733.018.283-.196.398-.14.68h4.143c.459-.068.947-.057 1.312-.392a6.06 6.06 0 0 0 4.345-.992 9.062 9.062 0 0 0 1.69-1.767c.412-.575.737-1.112.948-1.755a7.936 7.936 0 0 0 .324-1.021l.055-.241a9.62 9.62 0 0 0 .062-.31l.011-.072.024-.148.022-.148a12.017 12.017 0 0 0 .059-.507l.017-.223c.006-.096.012-.192.016-.288l.006-.236c.002-.093.004-.187.003-.28z"/><path d="m72.858 22.913c.03-.395.063-.824.153-1.167l-.651.245c-.04.149-.105.303-.12.44l.203-.068c.089.023.159.11.237.178-.044.332-.355.367-.548.51-.15.628.335 1.018.414 1.555h.702c-.257-.486-.332-1.11-.39-1.693zm.796-.595h-.054c-.15.123-.23.322-.35.48-.028.623.206 1.23.349 1.808h.699c.007-.618.041-1.202.094-1.797l-.094.017-.645-.508zm1.79.149c-.122-.12-.274-.144-.439-.15-.23.03-.278.293-.394.448l-.218 1.84v.002h.613v-.002c.133-.391.28-.826.366-1.242.077-.273.285-.623.072-.896zm8.616-.05.162.152c.079.267.04.592-.123.802-.185-.131-.224-.33-.348-.477-.09.073-.134.183-.201.277-.017.535.207.974.431 1.435h.617c-.045-.49-.13-.963-.135-1.435-.029-.324.14-.576.23-.853-.207.036-.425.053-.633.099zm-9.095-12.688 1.717 1.144a7.77 7.77 0 0 0 -1.717-1.144zm-5.899-5.723c.38-.344.837-.57 1.31-.738 0-.01-.003-.02-.004-.03l.015-.006c-.044-.609-.802-.716-1.27-.926l-.175-.017c-.572.112-.745.662-.837 1.1l-.007.035c.096.463.68.318.968.582zm2.026.572c.128-.18.262-.374.432-.524l-.021-.004.028-.028c-.236-.062-.474.068-.695.132-.17.081-.364.216-.442.38h.013c-.006.01-.015.02-.02.031zm2.191-.425c.399-.021.235.317.488.425.192-.034.438-.009.606-.06.005-.011.003-.02.003-.03h.006c.029-.079-.044-.127-.096-.179-.292-.012-.275-.332-.594-.29-.129-.013-.292-.026-.416.009-.026.008-.029.024-.023.041-.025.023.007.063.026.084zm2.76.425h.02c.11-.29.407-.108.544-.29l.006-.04.001-.001c.086-.46.116-1.016-.07-1.427a4.46 4.46 0 0 0 -.736-.53l-.448.168c-.241.169-.317.453-.388.744l.003.001-.01.04c.438.26.91.767 1.078 1.335zm-6.693.589-.099.02c.007.011.018.02.026.03l-.035.008c.093.158.31.277.494.353.04.163.21.26.35.38.184.086.401.074.612.037.105.006.17-.232.237-.054-.006.197.103.431.045.635a.365.365 0 0 1 -.048.085v.019c-.004.006-.006.014-.011.02a.37.37 0 0 1 -.007.128c-.107.291-.63.276-.852.533a.454.454 0 0 0 -.158.3.507.507 0 0 0 .049.35c.237-.09.454-.21.699-.27.066-.243.33-.427.599-.52 0-.012.002-.024.003-.035l.007-.003c.033-.601.25-1.16.27-1.746-.073-.125-.23-.233-.381-.287-.62.043-1.2-.027-1.8.017zm1.057 4.006a.73.73 0 0 1 -.001.057h-.006c.004.133-.057.45.053.498l.296-.245c.075-.033.168-.08.203-.19-.004-.006-.01-.008-.015-.012.008-.014.017-.027.022-.044-.163-.167-.363-.015-.552-.064zm2.923-3.785-.073.027.005.032-.014.006c.097.503.109 1.033.164 1.552.202.143.563.312.587.599.281.083.544.211.777.408.145-.15.28-.298.347-.472l-.007-.005c.005-.011.012-.022.016-.033-.286-.27-.947-.138-.953-.625l-.378-.217c-.066-.294-.047-.612-.13-.903l.058-.05c.043.089.147.17.239.227.263.032.592.122.82-.074.145-.09.128-.301.335-.307.086-.074.227-.096.325-.175 0-.054.09-.097.078-.14.014-.021.018-.041-.008-.062l-1.584-.026c-.22.037-.452.052-.605.238zm.561 3.77c-.029-.008-.072.016-.063.093a.113.113 0 0 0 -.006.06l.501.418.064-.515h-.001l.007-.056z"/></g></g></svg>